<svg width="30" height="28" viewBox="0 0 30 28" fill="none" xmlns="http://www.w3.org/2000/svg">
<g id="Glyph">
<path id="Page 1" fill-rule="evenodd" clip-rule="evenodd" d="M20.9097 12.1714C20.2341 10.6524 19.6199 9.35965 19.0672 8.29312C18.5144 7.22659 17.9309 6.36206 17.3167 5.69952C16.7026 5.03698 16.0078 4.56028 15.2324 4.2694C14.4569 3.97853 13.5242 3.84118 12.434 3.85734C11.6509 3.8735 11.2056 3.69978 11.0981 3.3362C10.9907 2.97261 10.6375 2.90393 10.0387 3.13016C9.45519 3.37255 9.23255 3.66746 9.37074 4.01489C9.50894 4.36232 9.27094 4.80267 8.65676 5.33593C7.7969 6.07927 7.16353 6.82664 6.75663 7.57806C6.34973 8.32948 6.1079 9.1738 6.03112 10.1111C5.95435 11.0483 6.01961 12.1148 6.2269 13.3106C6.43418 14.5064 6.73743 15.9204 7.13665 17.5525C7.47446 18.9261 7.32859 19.8593 6.69905 20.3521C6.06951 20.845 5.97738 21.754 6.42267 23.079C6.59157 23.58 7.0023 23.9921 7.65487 24.3152C8.30744 24.6384 9.11739 24.8485 10.0847 24.9455C11.0521 25.0424 12.1384 25.0101 13.3437 24.8485C14.5491 24.6869 15.789 24.3556 17.0634 23.8547C18.3532 23.3538 19.5086 22.7478 20.5297 22.0368C21.5508 21.3257 22.4029 20.5986 23.0862 19.8552C23.7695 19.1119 24.2608 18.3928 24.5603 17.6979C24.8597 17.0031 24.9326 16.4133 24.7791 15.9285C24.3184 14.6034 23.7004 13.9651 22.925 14.0136C22.1496 14.0621 21.4778 13.448 20.9097 12.1714ZM16.5103 22.2064C15.3741 22.6589 14.2992 22.9457 13.2858 23.0669C12.2724 23.1881 11.3819 23.2244 10.6141 23.176C9.84641 23.1275 9.23223 23.0265 8.77159 22.873C8.31095 22.7195 8.0576 22.5861 8.01154 22.473C7.95012 22.263 8.01922 21.9559 8.21883 21.5519C8.41844 21.1479 8.78311 20.6874 9.31284 20.1703C9.84258 19.6532 10.5489 19.1119 11.4318 18.5463C12.3147 17.9807 13.4163 17.4393 14.7368 16.9222C16.042 16.4213 17.2013 16.0779 18.2147 15.8921C19.2281 15.7062 20.0918 15.6214 20.8057 15.6376C21.5197 15.6537 22.0763 15.7547 22.4756 15.9406C22.8748 16.1264 23.1128 16.3324 23.1895 16.5587C23.2356 16.6879 23.1281 16.9707 22.8671 17.407C22.6061 17.8433 22.1953 18.3443 21.6349 18.9099C21.0744 19.4754 20.3681 20.0531 19.516 20.643C18.6638 21.2328 17.6619 21.7539 16.5103 22.2064ZM15.0365 17.8676C13.8389 18.3362 12.8216 18.8291 11.9848 19.3462C11.148 19.8633 10.4609 20.3561 9.92346 20.8248C10.292 21.1964 10.8025 21.4186 11.4551 21.4913C12.1076 21.5641 12.7871 21.4631 13.4934 21.1884C14.3993 20.8328 15.0941 20.3036 15.5778 19.6007C16.0615 18.8977 16.1958 18.2231 15.9808 17.5767C15.9808 17.5606 15.977 17.5525 15.9693 17.5525C15.9616 17.5525 15.9578 17.5444 15.9578 17.5282C15.8043 17.5767 15.6546 17.6292 15.5087 17.6858C15.3628 17.7423 15.2054 17.8029 15.0365 17.8676Z" fill="#AFAFAF"/>
</g>
</svg>
