<svg width="24" height="24" viewBox="0 0 24 24" fill="none" xmlns="http://www.w3.org/2000/svg">
<g id="12">
<path id="Shape" fill-rule="evenodd" clip-rule="evenodd" d="M0 10.3924C0 4.66181 5.38314 0 11.9999 0C18.6166 0 23.9997 4.66181 24 10.3924C24 16.122 18.6169 20.7838 12.0001 20.7838C10.6625 20.7838 8.99883 20.4216 8.9287 20.4059C8.86763 20.3928 8.7919 20.3854 8.7103 20.3854C8.41271 20.3854 8.05644 20.48 7.86445 20.6096L3.80529 23.3512C3.58503 23.4997 3.37223 23.5749 3.1725 23.5749C2.95943 23.5749 2.76984 23.4888 2.63864 23.3317C2.52264 23.192 2.40077 22.9323 2.48237 22.4869L3.26076 18.2211C3.3133 17.9307 3.12343 17.3739 2.78984 17.0625C2.7645 17.039 2.6189 16.8979 2.24158 16.4425C0.774925 14.671 0 12.5791 0 10.3924ZM9.11075 19.5769C9.12728 19.5806 10.7563 19.9348 12 19.9348C18.1488 19.9348 23.1509 15.654 23.1509 10.3922C23.1509 5.12959 18.1488 0.848842 12 0.848842C5.85132 0.848842 0.849239 5.12959 0.848973 10.3925C0.848973 12.3791 1.5567 14.2836 2.89562 15.9009C3.22077 16.2932 3.35461 16.4273 3.37008 16.4429C3.37103 16.4438 3.37153 16.4443 3.37161 16.4444C3.89481 16.9324 4.2068 17.7623 4.0956 18.3729L3.31721 22.639C3.31588 22.6454 3.31481 22.6518 3.31375 22.6579L3.33001 22.6473L7.3889 19.906C7.82356 19.6126 8.59102 19.4622 9.11075 19.5769Z" fill="black"/>
<path id="Oval" d="M11.9998 11.6785C12.7102 11.6785 13.2862 11.1026 13.2862 10.3922C13.2862 9.68171 12.7102 9.10577 11.9998 9.10577C11.2893 9.10577 10.7134 9.68171 10.7134 10.3922C10.7134 11.1026 11.2893 11.6785 11.9998 11.6785Z" fill="black"/>
<path id="Oval_2" d="M17.0161 11.6785C17.7266 11.6785 18.3025 11.1026 18.3025 10.3922C18.3025 9.68171 17.7266 9.10577 17.0161 9.10577C16.3057 9.10577 15.7297 9.68171 15.7297 10.3922C15.7297 11.1026 16.3057 11.6785 17.0161 11.6785Z" fill="black"/>
<path id="Oval_3" d="M6.98365 11.6785C7.6941 11.6785 8.27004 11.1026 8.27004 10.3922C8.27004 9.68171 7.6941 9.10577 6.98365 9.10577C6.2732 9.10577 5.69727 9.68171 5.69727 10.3922C5.69727 11.1026 6.2732 11.6785 6.98365 11.6785Z" fill="black"/>
</g>
</svg>
