<svg width="14" height="14" viewBox="0 0 14 14" fill="none" xmlns="http://www.w3.org/2000/svg">
<g id="127">
<path id="Shape" fill-rule="evenodd" clip-rule="evenodd" d="M0 7C0 3.14036 3.14036 0 7 0C10.8598 0 14 3.14036 14 7C14 10.8596 10.8596 14 7 14C3.14036 14 0 10.8598 0 7ZM0.495425 7.00001C0.495425 10.5867 3.41334 13.5047 7.00014 13.5047C10.5869 13.5047 13.5048 10.5868 13.5048 7.00001C13.5048 3.41321 10.5869 0.495295 7.00014 0.495295C3.41334 0.495295 0.495425 3.41336 0.495425 7.00001Z" fill="#555555"/>
<path id="Shape_2" d="M7.28195 6.93168C7.26795 6.91612 7.24882 6.86977 7.24773 6.85001V2.49834C7.24773 2.36161 7.13682 2.25085 7.00009 2.25085C6.86335 2.25085 6.75244 2.36161 6.75244 2.49834V6.84985C6.75244 6.99872 6.82602 7.17621 6.93102 7.28121L9.45071 9.80074C9.49924 9.84912 9.56271 9.87354 9.62586 9.87354C9.68902 9.87354 9.75249 9.84912 9.80102 9.80074C9.89762 9.70399 9.89762 9.54719 9.80102 9.45043L7.28195 6.93168Z" fill="#555555"/>
</g>
</svg>
