<svg width="14" height="14" viewBox="0 0 14 14" fill="none" xmlns="http://www.w3.org/2000/svg">
<g id="141">
<path id="Shape" d="M3.36879 6.64526H3.87886C4.15232 6.64526 4.37415 6.42344 4.37415 6.14998V5.63991C4.37415 5.36644 4.15232 5.14478 3.87886 5.14478H3.36879C3.09532 5.14478 2.87366 5.36644 2.87366 5.63991V6.14998C2.87381 6.42344 3.09532 6.64526 3.36879 6.64526Z" fill="#555555"/>
<path id="Shape_2" d="M6.74477 6.64526H7.25514C7.52861 6.64526 7.75028 6.42344 7.75028 6.14998V5.63991C7.75028 5.36644 7.52861 5.14478 7.25514 5.14478H6.74477C6.4713 5.14478 6.24963 5.36644 6.24963 5.63991V6.14998C6.24979 6.42344 6.47146 6.64526 6.74477 6.64526Z" fill="#555555"/>
<path id="Shape_3" d="M10.1211 6.64526H10.6312C10.9047 6.64526 11.1263 6.42344 11.1263 6.14998V5.63991C11.1263 5.36644 10.9047 5.14478 10.6312 5.14478H10.1211C9.84768 5.14478 9.62585 5.36644 9.62585 5.63991V6.14998C9.62601 6.42344 9.84783 6.64526 10.1211 6.64526Z" fill="#555555"/>
<path id="Shape_4" d="M3.36879 9.19632H3.87886C4.15232 9.19632 4.37415 8.9745 4.37415 8.70103V8.19081C4.37415 7.91735 4.15232 7.69568 3.87886 7.69568H3.36879C3.09532 7.69568 2.87366 7.91735 2.87366 8.19081V8.70103C2.87381 8.9745 3.09532 9.19632 3.36879 9.19632Z" fill="#555555"/>
<path id="Shape_5" d="M6.74477 9.19632H7.25514C7.52861 9.19632 7.75028 8.9745 7.75028 8.70103V8.19081C7.75028 7.91735 7.52861 7.69568 7.25514 7.69568H6.74477C6.4713 7.69568 6.24963 7.91735 6.24963 8.19081V8.70103C6.24979 8.9745 6.47146 9.19632 6.74477 9.19632Z" fill="#555555"/>
<path id="Shape_6" d="M10.1211 9.19632H10.6312C10.9047 9.19632 11.1263 8.9745 11.1263 8.70103V8.19081C11.1263 7.91735 10.9047 7.69568 10.6312 7.69568H10.1211C9.84768 7.69568 9.62585 7.91735 9.62585 8.19081V8.70103C9.62601 8.9745 9.84783 9.19632 10.1211 9.19632Z" fill="#555555"/>
<path id="Shape_7" d="M3.36879 11.7471H3.87886C4.15232 11.7471 4.37415 11.5253 4.37415 11.2518V10.7414C4.37415 10.468 4.15232 10.2465 3.87886 10.2465H3.36879C3.09532 10.2465 2.87366 10.468 2.87366 10.7414V11.2518C2.87381 11.5253 3.09532 11.7471 3.36879 11.7471Z" fill="#555555"/>
<path id="Shape_8" d="M6.74477 11.7471H7.25514C7.52861 11.7471 7.75028 11.5253 7.75028 11.2518V10.7414C7.75028 10.468 7.52861 10.2465 7.25514 10.2465H6.74477C6.4713 10.2465 6.24963 10.468 6.24963 10.7414V11.2518C6.24979 11.5253 6.47146 11.7471 6.74477 11.7471Z" fill="#555555"/>
<path id="Shape_9" fill-rule="evenodd" clip-rule="evenodd" d="M12.2519 0.583374H1.74813C0.784311 0.583374 0 1.36753 0 2.33151V11.9346C0 12.8986 0.784311 13.6827 1.74813 13.6827H12.2517C13.2157 13.6827 14 12.8986 14 11.9346V2.33151C14 1.36753 13.2157 0.583374 12.2519 0.583374ZM13.5047 11.9346C13.5047 12.6254 12.9429 13.1876 12.2517 13.1876H1.74815C1.05733 13.1876 0.495151 12.6256 0.495151 11.9346V3.70414H13.5047V11.9346ZM0.495288 3.209H13.5047H13.5049V2.33135C13.5049 1.64022 12.9428 1.0782 12.2519 1.0782H1.74829C1.05731 1.0782 0.495288 1.64037 0.495288 2.33135V3.209Z" fill="#555555"/>
</g>
</svg>
