<svg width="18" height="15" viewBox="0 0 18 15" fill="none" xmlns="http://www.w3.org/2000/svg">
<g id="Camera">
<path id="Union" fill-rule="evenodd" clip-rule="evenodd" d="M14.9933 2.98286H15.8033C17.0167 2.98286 18 3.96057 18 5.16697V12.7302C18 13.9366 17.0167 14.9143 15.8033 14.9143H2.19667C0.983333 14.9143 0 13.9366 0 12.7302V5.16697C0 3.96057 0.983333 2.98286 2.19667 2.98286H3.00667C3.1 2.98286 3.18 2.91989 3.20333 2.8304L3.59333 1.27931C3.78333 0.526971 4.46333 0 5.24333 0H12.7567C13.54 0 14.2167 0.526971 14.4067 1.28263L14.7967 2.83371C14.82 2.91989 14.9 2.98286 14.9933 2.98286ZM4.5 8.20286C4.5 10.672 6.51667 12.6771 9 12.6771C11.4833 12.6771 13.5 10.672 13.5 8.20286C13.5 5.73371 11.4833 3.72857 9 3.72857C6.51667 3.72857 4.5 5.73371 4.5 8.20286ZM14.25 5.96571C14.25 6.37668 14.5867 6.71143 15 6.71143C15.4133 6.71143 15.75 6.37668 15.75 5.96571C15.75 5.55474 15.4133 5.22 15 5.22C14.5867 5.22 14.25 5.55474 14.25 5.96571ZM6 8.20287C6 6.55899 7.34667 5.22002 9 5.22002C10.6533 5.22002 12 6.55899 12 8.20287C12 9.84676 10.6533 11.1857 9 11.1857C7.34667 11.1857 6 9.84676 6 8.20287Z" fill="white"/>
</g>
</svg>
