<svg width="24" height="24" viewBox="0 0 24 24" fill="none" xmlns="http://www.w3.org/2000/svg">
<g id="116">
<path id="Shape" fill-rule="evenodd" clip-rule="evenodd" d="M0 12C0 5.38347 5.38347 0 12 0C18.6168 0 24 5.38347 24 12C24 18.6165 18.6165 24 12 24C5.38347 24 0 18.6165 0 12ZM0.849226 12C0.849226 18.1485 5.85136 23.1509 12.0002 23.1509C18.149 23.1509 23.1511 18.1485 23.1511 12C23.1511 5.85093 18.149 0.8488 12.0002 0.8488C5.85136 0.8488 0.849226 5.85093 0.849226 12Z" fill="black"/>
<path id="Oval" d="M12.0001 7.67148C12.4908 7.67148 12.8886 7.27367 12.8886 6.78294C12.8886 6.29222 12.4908 5.89441 12.0001 5.89441C11.5094 5.89441 11.1116 6.29222 11.1116 6.78294C11.1116 7.27367 11.5094 7.67148 12.0001 7.67148Z" fill="black"/>
<path id="Shape_2" d="M12.0002 9.54504C11.7226 9.54504 11.4976 9.77011 11.4976 10.0477V17.6368C11.4976 17.9144 11.7226 18.1394 12.0002 18.1394C12.2778 18.1394 12.5029 17.9144 12.5029 17.6368V10.0477C12.5029 9.77011 12.2778 9.54504 12.0002 9.54504Z" fill="black"/>
</g>
</svg>
