<svg width="30" height="28" viewBox="0 0 30 28" fill="none" xmlns="http://www.w3.org/2000/svg">
<g id="Glyph">
<g id="Group 9">
<g id="Browser with Compass 1">
<g id="Group">
<path id="Vector" d="M12.6462 11.6465L4.47827 24.5217L17.3535 16.3538L25.5215 3.47852L12.6462 11.6465ZM15.7856 14.7858C15.3526 15.2188 14.6507 15.2188 14.2176 14.7858C13.7846 14.3528 13.7846 13.6509 14.2176 13.2179C14.6507 12.7849 15.3526 12.7849 15.7856 13.2179C16.2186 13.6474 16.2186 14.3528 15.7856 14.7858Z" fill="#AFAFAF"/>
</g>
</g>
<g id="Group_2">
<path id="Vector_2" d="M6.45143 17.541C5.99746 16.4479 5.74603 15.2537 5.74603 14C5.74603 8.8981 9.8981 4.74603 15 4.74603C16.2397 4.74603 17.4235 4.99397 18.506 5.43746L20.3883 4.41079C18.7959 3.51333 16.9591 3 15 3C8.92381 3 4 7.92381 4 14C4 15.9241 4.49587 17.7295 5.36191 19.3045L6.45143 17.541Z" fill="#AFAFAF"/>
<path id="Vector_3" d="M23.5212 10.3928C23.9926 11.5032 24.2545 12.722 24.2545 14.0001C24.2545 19.102 20.1024 23.254 15.0005 23.254C13.6875 23.254 12.4374 22.9782 11.3059 22.4823L9.65417 23.6137C11.2361 24.4937 13.0589 25.0001 15.0005 25.0001C21.0767 25.0001 26.0005 20.0763 26.0005 14.0001C26.0005 12.041 25.4872 10.2042 24.5897 8.61182L23.5212 10.3928Z" fill="#AFAFAF"/>
</g>
</g>
</g>
</svg>
