<svg width="40" height="40" viewBox="0 0 40 40" fill="none" xmlns="http://www.w3.org/2000/svg">
<rect width="40" height="40" rx="6" fill="#3ACE01"/>
<g clip-path="url(#clip0_40_16)">
<path d="M19.9995 8C27.3629 8 33.3323 12.7293 33.3323 18.5626C33.3323 20.6003 32.6031 22.5028 31.3419 24.1161C31.2793 24.2084 31.1976 24.3093 31.0946 24.4216L31.0869 24.4301C30.6559 24.9403 30.1711 25.419 29.6372 25.8616C25.9497 29.2336 19.8811 33.2472 19.0798 32.6276C18.3833 32.0889 20.2265 29.4563 18.1004 29.0185C17.9523 29.0014 17.8041 28.9833 17.6569 28.9633H17.654C11.4095 28.0839 6.66663 23.762 6.66663 18.5626C6.66663 12.7293 12.6361 8 19.9995 8Z" fill="white"/>
<path d="M12.2637 21.9318H12.3079H12.3214H14.9526C15.3354 21.9318 15.6481 21.6225 15.6481 21.2437V21.1866C15.6481 20.8078 15.3354 20.4984 14.9526 20.4984H13.0169V16.1413C13.0169 15.7625 12.7043 15.4532 12.3214 15.4532H12.2637C11.8808 15.4532 11.5681 15.7625 11.5681 16.1413V21.2437C11.5681 21.6225 11.8808 21.9318 12.2637 21.9318ZM28.9261 18.7329V18.6758C28.9261 18.297 28.6135 17.9877 28.2306 17.9877H26.295V16.8989H28.2306C28.6135 16.8989 28.9261 16.5896 28.9261 16.2108V16.1537C28.9261 15.7749 28.6135 15.4656 28.2306 15.4656H25.5994H25.5859H25.5417C25.1588 15.4656 24.8461 15.7749 24.8461 16.1537V21.256C24.8461 21.6348 25.1588 21.9441 25.5417 21.9441H25.5859H25.5994H28.2306C28.6135 21.9441 28.9261 21.6348 28.9261 21.256V21.1989C28.9261 20.8201 28.6135 20.5108 28.2306 20.5108H26.295V19.421H28.2306C28.6135 19.421 28.9261 19.1117 28.9261 18.7329ZM23.7552 21.7262C23.8793 21.6015 23.9562 21.4312 23.9562 21.2437V16.1413C23.9562 15.7625 23.6436 15.4532 23.2607 15.4532H23.203C22.8201 15.4532 22.5074 15.7625 22.5074 16.1413V19.1365L19.9936 15.8015C19.8734 15.594 19.6473 15.4532 19.3895 15.4532H19.3317C18.9489 15.4532 18.6362 15.7625 18.6362 16.1413V21.2437C18.6362 21.6225 18.9489 21.9318 19.3317 21.9318H19.3895C19.7724 21.9318 20.085 21.6225 20.085 21.2437V18.1923L22.6161 21.6129C22.6315 21.6367 22.6488 21.6596 22.6671 21.6815C22.7364 21.7757 22.8316 21.8395 22.9375 21.8794C23.0192 21.9127 23.1077 21.9308 23.201 21.9308H23.2588C23.3761 21.9308 23.4868 21.9013 23.5839 21.8509C23.6551 21.8185 23.7138 21.7766 23.7552 21.7262ZM16.9045 21.9318H16.9622C17.3451 21.9318 17.6578 21.6225 17.6578 21.2437V16.1413C17.6578 15.7625 17.3451 15.4532 16.9622 15.4532H16.9045C16.5216 15.4532 16.209 15.7625 16.209 16.1413V21.2437C16.209 21.6225 16.5226 21.9318 16.9045 21.9318Z" fill="#3ACE01"/>
</g>
<defs>
<clipPath id="clip0_40_16">
<rect width="26.6667" height="24.6914" fill="white" transform="translate(6.66663 8)"/>
</clipPath>
</defs>
</svg>
