<svg width="20" height="18" viewBox="0 0 20 18" fill="none" xmlns="http://www.w3.org/2000/svg">
<g id="Like/Inactive">
<path id="Shape" fill-rule="evenodd" clip-rule="evenodd" d="M9.40322 17.0532C9.2571 16.9625 8.01617 16.193 7.29445 15.6852C1.72715 11.7721 -0.897119 7.22413 0.274397 3.5204C0.940376 1.41471 2.79437 0 4.88756 0C6.21792 0 7.56052 0.514318 8.57053 1.41151C9.34426 2.09904 9.86497 3.19287 10.0004 3.49645C10.1491 3.16253 10.6661 2.08973 11.4297 1.41151C12.4395 0.514584 13.7815 0 15.1122 0C17.2056 0 19.0596 1.41471 19.7256 3.52067C20.8971 7.22439 18.2728 11.7721 12.7056 15.6852C11.9843 16.1925 10.7448 16.9611 10.5967 17.0529C10.5904 17.0568 10.5861 17.0594 10.5839 17.0608C10.4227 17.1611 10.2151 17.2162 10.0001 17.2162C9.78568 17.2162 9.57788 17.1611 9.41557 17.0608C9.41338 17.0595 9.40922 17.0569 9.40322 17.0532ZM4.88752 0.846632C3.16497 0.846632 1.63559 2.02374 1.08163 3.77556C0.0274489 7.10917 2.53199 11.3025 7.78186 14.9924C8.46843 15.4752 9.68797 16.2328 9.84437 16.33C9.85447 16.3362 9.86014 16.3398 9.86094 16.3403C9.87851 16.3509 9.92773 16.3695 10.0004 16.3695C10.073 16.3695 10.1217 16.3515 10.139 16.3403C10.1395 16.34 10.1421 16.3384 10.1465 16.3356C10.2557 16.2679 11.5164 15.4861 12.2186 14.9924C17.4685 11.3022 19.973 7.10944 18.9186 3.77582C18.3646 2.02374 16.835 0.846632 15.1124 0.846632C13.9864 0.846632 12.8492 1.28326 11.9924 2.04449C11.2671 2.68817 10.7727 3.8411 10.7484 3.89773C10.7479 3.89888 10.7476 3.89957 10.7475 3.89981C10.5405 4.48331 10.1901 4.57377 10.0001 4.57377C9.81012 4.57377 9.45971 4.48357 9.24446 3.87932C9.24445 3.87932 9.24416 3.87866 9.2436 3.87737C9.22044 3.82379 8.72736 2.68329 8.00828 2.04449C7.151 1.28326 6.01327 0.846632 4.88752 0.846632Z" fill="#00CEA6"/>
</g>
</svg>
