<svg width="9" height="12" viewBox="0 0 9 12" fill="none" xmlns="http://www.w3.org/2000/svg">
<path id="Vector" d="M4.36364 0C1.95273 0 0 1.95273 0 4.36364C0 7.90909 4.36364 12 4.36364 12C4.36364 12 8.72727 7.90909 8.72727 4.36364C8.72727 1.95273 6.77455 0 4.36364 0ZM4.36364 11.1818C4.36364 11.1818 0.545455 7.63636 0.545455 4.36364C0.545455 2.25545 2.25545 0.545455 4.36364 0.545455C6.47182 0.545455 8.18182 2.25545 8.18182 4.36364C8.18182 7.63636 4.36364 11.1818 4.36364 11.1818ZM4.36364 2.18182C3.15818 2.18182 2.18182 3.15818 2.18182 4.36364C2.18182 5.56909 3.15818 6.54545 4.36364 6.54545C5.56909 6.54545 6.54545 5.56909 6.54545 4.36364C6.54545 3.15818 5.56909 2.18182 4.36364 2.18182ZM4.36364 6C3.46091 6 2.72727 5.26636 2.72727 4.36364C2.72727 3.46091 3.46091 2.72727 4.36364 2.72727C5.26636 2.72727 6 3.46091 6 4.36364C6 5.26636 5.26636 6 4.36364 6Z" fill="white"/>
</svg>
