<svg width="30" height="28" viewBox="0 0 30 28" fill="none" xmlns="http://www.w3.org/2000/svg">
<g id="Glyph">
<g id="Group">
<g id="Location Pin 2 7">
<g id="Group_2">
<path id="Vector" d="M12.1146 2C7.63352 2 4 5.65784 4 10.1702C4 16.8085 12.1146 23.221 12.1146 23.221C12.1146 23.221 20.2293 16.8085 20.2293 10.1702C20.2293 5.65784 16.5957 2 12.1146 2ZM12.1146 14.4915C9.70039 14.4915 7.74468 12.5358 7.74468 10.1216C7.74468 7.70734 9.70039 5.7551 12.1146 5.7551C14.5289 5.7551 16.4846 7.71081 16.4846 10.1216C16.4846 12.5323 14.5289 14.4915 12.1146 14.4915ZM12.1146 6.98828C10.3917 6.98828 8.99522 8.38819 8.99522 10.1112C8.99522 11.8341 10.3917 13.234 12.1146 13.234C13.8376 13.234 15.234 11.8341 15.234 10.1112C15.234 8.38819 13.8376 6.98828 12.1146 6.98828Z" fill="#AFAFAF"/>
</g>
</g>
<g id="Location Pin 2 5">
<g id="Group_3">
<path id="Vector_2" d="M20.8545 24.739C20.4932 24.7911 20.1111 24.8294 19.7186 24.8537C19.4059 24.8745 19.1662 25.1455 19.1871 25.4581C19.2079 25.7603 19.458 25.9896 19.7533 25.9896C19.7672 25.9896 19.7776 25.9896 19.7915 25.9896C20.2118 25.9618 20.6217 25.9201 21.0143 25.8645C21.3269 25.8194 21.5423 25.5311 21.4971 25.2219C21.4554 24.9127 21.1671 24.6939 20.8545 24.739ZM22.6539 16.079C22.4906 15.7872 22.3899 15.485 22.3586 15.1793C22.3238 14.8667 22.0494 14.6409 21.7333 14.6756C21.4207 14.7104 21.1949 14.9883 21.2262 15.3009C21.2748 15.7594 21.4207 16.211 21.6604 16.6348C21.7646 16.8224 21.9591 16.9266 22.1571 16.9266C22.2509 16.9266 22.3482 16.9023 22.435 16.8537C22.7094 16.7008 22.8067 16.3535 22.6539 16.079ZM14.0981 24.2736C13.7368 24.145 13.4068 23.9922 13.1185 23.822C12.8475 23.6622 12.4967 23.7525 12.3403 24.0235C12.1806 24.2944 12.2709 24.6453 12.5418 24.8016C12.8892 25.0065 13.2852 25.1872 13.7125 25.34C13.775 25.3608 13.841 25.3713 13.9035 25.3713C14.1363 25.3713 14.3551 25.2288 14.4385 24.9926C14.5462 24.7043 14.3933 24.3778 14.0981 24.2736ZM17.4224 24.8606C17.0299 24.8398 16.6443 24.805 16.283 24.7634C15.9704 24.7182 15.6856 24.944 15.6473 25.2566C15.6091 25.5693 15.8314 25.8541 16.1406 25.8923C16.5297 25.941 16.9396 25.9757 17.3599 26C17.3703 26 17.3807 26 17.3912 26C17.6934 26 17.9435 25.7638 17.9608 25.4616C17.9747 25.1455 17.7351 24.878 17.4224 24.8606ZM23.9426 23.6865C23.6751 23.8706 23.359 24.0408 23.0082 24.1832C22.7164 24.3048 22.5774 24.6348 22.699 24.9266C22.7893 25.1455 23.0012 25.2775 23.227 25.2775C23.3 25.2775 23.3729 25.2636 23.4424 25.2358C23.8697 25.0586 24.2587 24.8502 24.5922 24.6209C24.8493 24.4403 24.9153 24.086 24.7346 23.8289C24.554 23.5719 24.1997 23.5059 23.9426 23.6865ZM26.1276 20.977C26.0616 20.6678 25.7594 20.4733 25.4537 20.5358C25.1445 20.5984 24.9465 20.9006 25.0125 21.2097C25.0507 21.3938 25.0716 21.5745 25.0716 21.7447C25.0716 21.8836 25.0577 22.0261 25.0334 22.1581C24.9743 22.4672 25.1758 22.766 25.4849 22.825C25.5197 22.832 25.5579 22.8354 25.5926 22.8354C25.8601 22.8354 26.0998 22.6479 26.1519 22.3734C26.1936 22.1685 26.211 21.9566 26.211 21.7412C26.211 21.4946 26.1832 21.2375 26.1276 20.977ZM24.9778 18.6426C24.7381 18.3265 24.4602 18.0104 24.151 17.6978C23.9322 17.472 23.5709 17.472 23.3451 17.6908C23.1193 17.9097 23.1193 18.271 23.3382 18.4967C23.6126 18.7746 23.8592 19.056 24.0711 19.3339C24.1823 19.4798 24.3525 19.5562 24.5227 19.5562C24.6443 19.5562 24.7659 19.518 24.8666 19.4381C25.1202 19.2505 25.1688 18.8928 24.9778 18.6426Z" fill="#AFAFAF"/>
</g>
</g>
</g>
</g>
</svg>
