<svg width="14" height="18" viewBox="0 0 14 18" fill="none" xmlns="http://www.w3.org/2000/svg">
<g id="Location Pin 2 2">
<g id="Group">
<path id="Vector" d="M6.88296 0C3.08201 0 0 3.10264 0 6.9301C0 12.5608 6.88296 18 6.88296 18C6.88296 18 13.7659 12.5608 13.7659 6.9301C13.7659 3.10264 10.6839 0 6.88296 0ZM6.88296 10.5955C4.83516 10.5955 3.1763 8.93665 3.1763 6.88885C3.1763 4.84105 4.83516 3.18514 6.88296 3.18514C8.93076 3.18514 10.5896 4.844 10.5896 6.88885C10.5896 8.9337 8.93076 10.5955 6.88296 10.5955ZM6.88296 4.23113C5.42151 4.23113 4.23703 5.41856 4.23703 6.88001C4.23703 8.34146 5.42151 9.52889 6.88296 9.52889C8.34441 9.52889 9.52889 8.34146 9.52889 6.88001C9.52889 5.41856 8.34441 4.23113 6.88296 4.23113Z" fill="#00CEA6"/>
</g>
</g>
</svg>
