<svg width="24" height="6" viewBox="0 0 24 6" fill="none" xmlns="http://www.w3.org/2000/svg">
<g id="53">
<path id="Shape" fill-rule="evenodd" clip-rule="evenodd" d="M12 5.99361C10.3477 5.99361 9.00317 4.64907 9.00317 2.9968C9.00317 1.34453 10.3477 0 12 0C13.6522 0 14.9968 1.34453 14.9968 2.9968C14.9968 4.64907 13.6522 5.99361 12 5.99361ZM11.9999 5.14479C13.1845 5.14479 14.1479 4.18079 14.1479 2.99679C14.1479 1.81253 13.1842 0.848525 11.9999 0.848525C10.8157 0.848525 9.85194 1.81253 9.85194 2.99679C9.85194 4.18106 10.8159 5.14479 11.9999 5.14479Z" fill="black"/>
<path id="Shape_2" fill-rule="evenodd" clip-rule="evenodd" d="M2.99707 0C4.64934 0 5.99387 1.34453 5.99387 2.9968C5.99387 4.64907 4.64907 5.99361 2.9968 5.99361C1.34453 5.99361 0 4.64907 0 2.9968C0 1.34453 1.3448 0 2.99707 0ZM0.848721 2.99679C0.848721 4.18106 1.81246 5.14479 2.99672 5.14479C4.18099 5.14479 5.14473 4.18079 5.14473 2.99679C5.14473 1.81226 4.18072 0.848525 2.99672 0.848525C1.81219 0.848525 0.848721 1.81253 0.848721 2.99679Z" fill="black"/>
<path id="Shape_3" fill-rule="evenodd" clip-rule="evenodd" d="M18.0063 2.9968C18.0063 1.34453 19.3509 0 21.0032 0C22.6554 0 24 1.34453 24 2.9968C24 4.64907 22.6554 5.99361 21.0032 5.99361C19.3509 5.99361 18.0063 4.64907 18.0063 2.9968ZM18.8551 2.99679C18.8551 4.18106 19.8188 5.14479 21.0031 5.14479C22.1877 5.14479 23.1509 4.18079 23.1511 2.99679C23.1511 1.81226 22.1877 0.848525 21.0031 0.848525C19.8186 0.848525 18.8551 1.81253 18.8551 2.99679Z" fill="black"/>
</g>
</svg>
