<svg width="30" height="28" viewBox="0 0 30 28" fill="none" xmlns="http://www.w3.org/2000/svg">
<g id="Glyph">
<path id="Vector" fill-rule="evenodd" clip-rule="evenodd" d="M22.3334 3H7.14266C5.41026 3 4 4.40668 4 6.1355V15.5599C4 17.2887 5.41026 18.699 7.14266 18.699H7.71894C7.89074 18.699 8.03034 18.8386 8.03034 19.0104V23.1481C8.03034 23.37 8.07329 23.5526 8.15919 23.6958C8.27731 23.889 8.46702 24 8.68536 24C8.90012 24 9.11846 23.8926 9.32964 23.685L14.1081 18.9138C14.2154 18.8064 14.4732 18.699 14.6271 18.699H22.337C24.0694 18.699 25.4796 17.2923 25.4796 15.5635V6.13908C25.476 4.40668 24.0658 3 22.3334 3ZM8.65314 7.56008H16.5277C16.7246 7.56008 16.8856 7.72115 16.8856 7.91802C16.8856 8.11488 16.7246 8.27595 16.5277 8.27595H8.65314C8.45628 8.27595 8.29521 8.11488 8.29521 7.91802C8.29521 7.72115 8.45628 7.56008 8.65314 7.56008ZM20.8229 13.645H8.65314C8.45628 13.645 8.29521 13.4839 8.29521 13.287C8.29521 13.0902 8.45628 12.9291 8.65314 12.9291H20.8229C21.0198 12.9291 21.1808 13.0902 21.1808 13.287C21.1808 13.4839 21.0198 13.645 20.8229 13.645ZM20.8229 10.9605H8.65314C8.45628 10.9605 8.29521 10.7994 8.29521 10.6025C8.29521 10.4057 8.45628 10.2446 8.65314 10.2446H20.8229C21.0198 10.2446 21.1808 10.4057 21.1808 10.6025C21.1808 10.7994 21.0198 10.9605 20.8229 10.9605Z" fill="#AFAFAF"/>
</g>
</svg>
