<svg width="16" height="16" viewBox="0 0 16 16" fill="none" xmlns="http://www.w3.org/2000/svg">
<path id="Vector" d="M15.8945 15.3782L12.04 11.5236C13.1418 10.3018 13.8182 8.68727 13.8182 6.90909C13.8182 3.09455 10.7236 0 6.90909 0C3.09455 0 0 3.09455 0 6.90909C0 10.7236 3.09455 13.8182 6.90909 13.8182C8.68727 13.8182 10.3018 13.1418 11.5236 12.04L15.3782 15.8945C15.4436 15.96 15.5345 16 15.6364 16C15.8364 16 16 15.8364 16 15.6364C16 15.5345 15.96 15.4436 15.8945 15.3782ZM6.90909 13.0909C3.49455 13.0909 0.727273 10.3236 0.727273 6.90909C0.727273 3.49455 3.49455 0.727273 6.90909 0.727273C10.3236 0.727273 13.0909 3.49455 13.0909 6.90909C13.0909 10.3236 10.3236 13.0909 6.90909 13.0909Z" fill="#333333"/>
</svg>
