<svg width="24" height="25" viewBox="0 0 24 25" fill="none" xmlns="http://www.w3.org/2000/svg">
<path id="Vector" d="M23.1929 9.79753L22.0368 9.5085C21.7969 8.61961 21.4479 7.7798 20.9952 6.99998L21.6115 5.97476C21.8023 5.60939 21.9223 5.15676 21.6115 4.84592L19.3483 2.5828C19.2065 2.44102 19.032 2.38648 18.8575 2.38648C18.6394 2.38648 18.4104 2.46828 18.2195 2.5828L17.1888 3.19903C16.4145 2.75185 15.5746 2.39739 14.6858 2.1629L14.3967 1.00134C14.2713 0.608705 14.0368 0.199707 13.5951 0.199707H10.394C9.95228 0.199707 9.69598 0.608705 9.59237 1.00134L9.30879 2.1629C8.4199 2.40284 7.58555 2.75185 6.80573 3.19903L5.77505 2.5828C5.58419 2.46828 5.35515 2.38648 5.13701 2.38648C4.95706 2.38648 4.78255 2.44102 4.64622 2.5828L2.38309 4.84592C2.07226 5.15676 2.19223 5.60939 2.38309 5.97476L2.99932 6.99998C2.54669 7.7798 2.19223 8.61961 1.95774 9.5085L0.801636 9.79753C0.408998 9.89569 0 10.1574 0 10.5992V13.8003C0 14.242 0.408998 14.4765 0.801636 14.6019L1.95774 14.8909C2.19768 15.7798 2.54669 16.6196 2.99932 17.3994L2.38309 18.4247C2.17587 18.7737 2.07226 19.2427 2.38309 19.5535L4.64622 21.8166C4.78255 21.9529 4.9516 22.0075 5.12066 22.0075C5.33879 22.0075 5.57328 21.9202 5.77505 21.8166L6.80573 21.2004C7.5801 21.6476 8.4199 22.002 9.30879 22.2365L9.59782 23.3981C9.69598 23.7907 9.95774 24.1997 10.3995 24.1997H13.6005C14.0423 24.1997 14.2768 23.7907 14.4022 23.3981L14.6912 22.2365C15.5801 22.002 16.4145 21.6476 17.1943 21.2004L18.2249 21.8166C18.4322 21.9202 18.6612 22.0075 18.8793 22.0075C19.0539 22.0075 19.2175 21.9529 19.3538 21.8166L21.6169 19.5535C21.9277 19.2427 21.8241 18.7682 21.6169 18.4247L21.0007 17.3994C21.4533 16.6196 21.8078 15.7798 22.0423 14.8909L23.1984 14.6019C23.591 14.4765 24 14.242 24 13.8003V10.5992C23.9945 10.1574 23.5856 9.89569 23.1929 9.79753ZM22.9039 13.5439C22.8984 13.5439 22.8984 13.5494 22.893 13.5494L21.7751 13.8275C21.3879 13.9257 21.0879 14.2202 20.9843 14.6019C20.7716 15.3872 20.4608 16.1397 20.0518 16.8432C19.85 17.1868 19.8555 17.6121 20.0573 17.9502L20.6571 18.9482L18.7539 20.8514C18.7485 20.8514 18.7485 20.8459 18.743 20.8459L17.7451 20.2515C17.5706 20.1479 17.3797 20.0934 17.1834 20.0934C16.998 20.0934 16.8071 20.1424 16.638 20.2406C15.9346 20.6496 15.182 20.9604 14.4022 21.1677C14.0205 21.2713 13.7205 21.5712 13.6278 21.9584L13.3442 23.0818C13.3442 23.0872 13.3442 23.0872 13.3388 23.0927H10.6449L10.3613 21.9529C10.2631 21.5658 9.96864 21.2658 9.58691 21.1622C8.80709 20.955 8.05453 20.6387 7.35106 20.2352C7.182 20.137 6.99659 20.0879 6.80573 20.0879C6.60941 20.0879 6.41854 20.137 6.24404 20.2461L5.24608 20.8405C5.24063 20.8405 5.24063 20.8459 5.23517 20.8459L3.33197 18.9427L3.93183 17.9393C4.13906 17.6012 4.13906 17.1758 3.94274 16.8323C3.53374 16.1288 3.21745 15.3708 3.01023 14.591C2.90661 14.2093 2.60668 13.9093 2.2195 13.8166L1.10157 13.5385C1.09611 13.5385 1.09066 13.5385 1.09066 13.533V10.8391L2.2195 10.5555C2.60123 10.4574 2.90661 10.1629 3.01023 9.78117C3.21745 8.99589 3.53374 8.24333 3.94274 7.53986C4.14451 7.1963 4.13906 6.77094 3.93183 6.43284L3.33742 5.45124C3.33742 5.44579 3.33197 5.44579 3.33197 5.44033L5.23517 3.53713L6.24404 4.14245C6.41854 4.24606 6.60941 4.29514 6.80573 4.29514C6.99114 4.29514 7.182 4.24606 7.35106 4.1479C8.05453 3.7389 8.80709 3.42806 9.58691 3.22084C9.96864 3.11723 10.2686 2.81729 10.3613 2.43011L10.6503 1.29037H13.3442C13.3442 1.29582 13.3442 1.29582 13.3497 1.30127L13.6333 2.42466C13.7314 2.81184 14.0259 3.11177 14.4076 3.21539C15.1875 3.42261 15.94 3.73345 16.6435 4.14245C16.8125 4.24061 16.998 4.28969 17.1888 4.28969C17.3851 4.28969 17.576 4.24061 17.7505 4.13699L18.7594 3.53168L20.6626 5.43488C20.6626 5.44033 20.6571 5.44033 20.6571 5.44579L20.0627 6.43284C19.8555 6.77639 19.8555 7.1963 20.0573 7.53986C20.4663 8.24333 20.7771 9.00134 20.9898 9.78117C21.0934 10.1629 21.3933 10.4628 21.7805 10.5555L22.9039 10.85V13.5439ZM11.9973 6.74367C8.98705 6.74367 6.54397 9.18676 6.54397 12.197C6.54397 15.2072 8.98705 17.6503 11.9973 17.6503C15.0075 17.6503 17.4506 15.2072 17.4506 12.197C17.4506 9.18676 15.0075 6.74367 11.9973 6.74367ZM11.9973 16.5596C9.58691 16.5596 7.63463 14.6073 7.63463 12.197C7.63463 9.78662 9.58691 7.83434 11.9973 7.83434C14.4076 7.83434 16.3599 9.78662 16.3599 12.197C16.3599 14.6073 14.4076 16.5596 11.9973 16.5596Z" fill="white"/>
</svg>
