<svg width="40" height="40" viewBox="0 0 40 40" fill="none" xmlns="http://www.w3.org/2000/svg">
<rect width="40" height="40" rx="6" fill="#FFE812"/>
<g clip-path="url(#clip0_40_14)">
<path d="M20 8C12.6359 8 6.66663 12.6145 6.66663 18.3075C6.66663 21.988 9.16278 25.2172 12.9166 27.0411C12.7128 27.7312 11.6038 31.4834 11.5602 31.7788C11.5602 31.7788 11.5333 32 11.6794 32.0842C11.8256 32.1685 11.9974 32.1031 11.9974 32.1031C12.4166 32.0453 16.8615 28.9845 17.6307 28.4528C18.4 28.5596 19.191 28.6149 19.9987 28.6149C27.3628 28.6149 33.332 24.0004 33.332 18.3075C33.3333 12.6145 27.3641 8 20 8Z" fill="black"/>
<path d="M12.6282 21.9063C12.2038 21.9063 11.8589 21.5832 11.8589 21.186V16.7048H10.6589C10.2423 16.7048 9.90381 16.3729 9.90381 15.9657C9.90381 15.5584 10.2423 15.2265 10.6589 15.2265H14.5974C15.0141 15.2265 15.3525 15.5584 15.3525 15.9657C15.3525 16.3729 15.0141 16.7048 14.5974 16.7048H13.3974V21.1847C13.3974 21.582 13.0525 21.9063 12.6282 21.9063Z" fill="#FFE812"/>
<path d="M19.373 21.8962C19.0525 21.8962 18.8064 21.768 18.7333 21.5631L18.3525 20.5851H16.0064L15.6256 21.5631C15.5525 21.768 15.3064 21.8962 14.9858 21.8962C14.8166 21.8962 14.6474 21.8597 14.4974 21.7919C14.2858 21.6963 14.082 21.4324 14.3153 20.7209L16.1538 15.9719C16.2833 15.6112 16.6769 15.2391 17.1782 15.2278C17.6807 15.2391 18.0743 15.6112 18.2038 15.9732L20.0435 20.7196C20.2782 21.4324 20.0743 21.6963 19.8615 21.7919C19.7115 21.8597 19.5423 21.8962 19.373 21.8962ZM17.9474 19.2489L17.1794 17.1095L16.4115 19.2502H17.9474V19.2489Z" fill="#FFE812"/>
<path d="M21.282 21.7956C20.8756 21.7956 20.5448 21.4852 20.5448 21.1043V15.982C20.5448 15.5659 20.8974 15.2278 21.3307 15.2278C21.764 15.2278 22.1166 15.5659 22.1166 15.982V20.4129H23.7512C24.1576 20.4129 24.4884 20.7234 24.4884 21.1043C24.4884 21.4852 24.1576 21.7956 23.7512 21.7956H21.282Z" fill="#FFE812"/>
<path d="M25.5551 21.8962C25.1308 21.8962 24.7859 21.5581 24.7859 21.142V15.982C24.7859 15.5659 25.1308 15.2278 25.5551 15.2278C25.9795 15.2278 26.3244 15.5659 26.3244 15.982V17.6035L28.4705 15.4993C28.5808 15.3912 28.732 15.3309 28.8974 15.3309C29.0897 15.3309 29.282 15.4126 29.4269 15.5533C29.5615 15.6853 29.6423 15.855 29.6526 16.031C29.6641 16.2082 29.6038 16.3717 29.4833 16.4898L27.7308 18.2094L29.6244 20.6694C29.7487 20.8303 29.8013 21.0289 29.7718 21.2287C29.7436 21.4286 29.6372 21.6046 29.4731 21.7265C29.3385 21.8258 29.1782 21.8786 29.0102 21.8786C28.7667 21.8786 28.5423 21.7692 28.3961 21.5794L26.5923 19.2364L26.3256 19.4978V21.1433C26.3243 21.5581 25.9795 21.8962 25.5551 21.8962Z" fill="#FFE812"/>
</g>
<defs>
<clipPath id="clip0_40_14">
<rect width="26.6667" height="24.127" fill="white" transform="translate(6.66663 8)"/>
</clipPath>
</defs>
</svg>
