<svg width="22" height="23" viewBox="0 0 22 23" fill="none" xmlns="http://www.w3.org/2000/svg">
<g id="Group">
<path id="Vector" d="M11.8326 10.0567C8.70188 10.0567 5.98834 9.53249 4.29007 8.56891C3.70675 8.85318 1.8608 9.77247 1.37347 10.3521C1.27379 10.4702 1.15565 10.7804 1.14827 10.9354C1.14457 11.0572 1.28118 11.3969 1.28118 11.3969C5.41979 13.1469 7.73091 12.4786 10.0457 12.0245C12.5082 11.5409 14.7381 9.96445 14.7381 9.96445C14.7566 9.94229 14.7787 9.92383 14.7972 9.90168C13.7819 10.0051 12.7888 10.0567 11.8326 10.0567Z" fill="#555555"/>
<path id="Vector_2" d="M11.8989 0.697768H11.8657C11.8325 0.310119 11.3636 0 10.784 0C10.1859 0 9.69855 0.328579 9.69855 0.734687C9.69855 0.742071 9.70225 0.745763 9.70225 0.753147C4.20502 1.32539 4.43022 5.17234 4.54098 7.25088C4.55944 7.61638 4.53359 7.97449 4.51144 8.20708C6.75242 9.48448 10.8947 9.95335 15.4136 9.41433C16.2517 8.8384 17.3925 8.28461 17.3925 8.28461C17.3925 8.28461 17.4626 6.1507 17.3925 5.44185C17.0159 1.7315 13.8409 0.874979 11.8989 0.697768Z" fill="#555555"/>
<path id="Vector_3" d="M21.8191 19.9991L14.2766 15.8863C16.8055 13.8742 16.8387 9.84637 16.8387 9.67655V8.46191C16.6135 8.58375 16.3662 8.72035 16.1077 8.86064V9.64332C16.1077 9.71716 16.0708 13.9998 13.324 15.6094C13.1764 15.7202 13.1062 15.938 13.2133 16.1226C13.2613 16.1927 13.3351 16.2481 13.4127 16.2777L21.1952 20.5529V21.797C21.1952 22.0149 21.0475 22.1625 20.8666 22.1625H1.06327C0.878671 22.1625 0.734687 22.0149 0.734687 21.797V20.5529L8.60581 16.2703C8.7904 16.1595 8.86055 15.9417 8.75348 15.7571C8.73133 15.7202 8.70549 15.6906 8.67595 15.6648C8.65749 15.6463 8.63903 15.6316 8.61688 15.6168C8.61319 15.6131 8.6095 15.6131 8.60581 15.6094C7.39117 14.8378 6.71186 13.5641 6.33529 12.3938C6.03625 12.3975 5.75936 12.3938 5.52677 12.3864C5.88488 13.59 6.53835 14.9412 7.72714 15.8937L0.184595 19.9991C0.0738379 20.0729 0 20.1837 0 20.3277V21.7933C0 22.4136 0.476254 22.8898 1.06327 22.8898H20.9035C21.4905 22.8898 21.9668 22.4136 22 21.7933V20.3277C22 20.18 21.9262 20.0729 21.8191 19.9991Z" fill="#555555"/>
</g>
</svg>
