<svg width="205" height="85" viewBox="0 0 205 85" fill="none" xmlns="http://www.w3.org/2000/svg">
<g id="Logo" clip-path="url(#clip0_206_72)">
<g id="Group">
<g id="Group_2">
<path id="Vector" d="M172.239 84.7565C154.177 84.7565 139.477 70.0565 139.477 51.995V13.319C139.477 10.0574 142.121 7.4136 145.382 7.4136C148.644 7.4136 151.288 10.0574 151.288 13.319V51.995C151.288 63.5424 160.682 72.9456 172.239 72.9456C183.795 72.9456 193.189 63.5515 193.189 51.995C193.189 40.5839 184.013 31.2715 172.647 31.0535L172.638 31.7803C172.584 35.0419 169.885 37.6675 166.642 37.5858C163.38 37.5313 160.782 34.8511 160.837 31.5895L160.936 25.5932C160.982 22.8222 162.944 20.4601 165.661 19.9058C167.823 19.4607 170.04 19.2426 172.257 19.2426C190.318 19.2426 205.018 33.9426 205.018 52.0041C205 70.0565 190.3 84.7565 172.239 84.7565Z" fill="white"/>
</g>
<path id="Vector_2" d="M181.306 51.8224C183.523 51.8224 185.321 50.0245 185.321 47.8067C185.321 45.5889 183.523 43.791 181.306 43.791C179.088 43.791 177.29 45.5889 177.29 47.8067C177.29 50.0245 179.088 51.8224 181.306 51.8224Z" fill="white"/>
<path id="Vector_3" d="M162.826 51.8224C165.044 51.8224 166.842 50.0245 166.842 47.8067C166.842 45.5889 165.044 43.791 162.826 43.791C160.608 43.791 158.811 45.5889 158.811 47.8067C158.811 50.0245 160.608 51.8224 162.826 51.8224Z" fill="white"/>
</g>
<g id="Group_3">
<path id="Vector_4" d="M17.0531 0.817657H0.854015H0V1.67167V33.9971V34.8511H0.854015H4.08837H4.94239V33.9971V18.9882H17.0531H17.9071V18.1342V14.9634V14.1094H17.0531H4.94239V5.68736H17.0531H17.9071V4.83335V1.67167V0.817657H17.0531Z" fill="white"/>
<path id="Vector_5" d="M43.6184 25.3116L42.9006 24.9391L42.4827 25.6296C41.5923 27.1105 40.7747 28.1825 40.0388 28.8185C39.3119 29.4454 38.4125 29.9632 37.3677 30.3448C36.3138 30.7355 35.2236 30.9263 34.1061 30.9263C31.8075 30.9263 29.9269 30.1359 28.3642 28.5187C26.9741 27.0741 26.1928 25.3116 25.9929 23.1402H46.6074H47.4705L47.4614 22.2771C47.4342 18.8338 46.4802 15.8992 44.6359 13.5734C42.0466 10.2845 38.5306 8.61285 34.1969 8.61285C29.9814 8.61285 26.5653 10.2482 24.0396 13.4644C22.0681 15.981 21.0687 18.8883 21.0687 22.1045C21.0687 25.5205 22.2498 28.6277 24.5756 31.3351C26.9378 34.0789 30.2358 35.4689 34.3786 35.4689C36.232 35.4689 37.931 35.1782 39.4119 34.6058C40.9019 34.0334 42.2556 33.1885 43.4457 32.0983C44.6268 31.008 45.6807 29.5635 46.5802 27.81L46.9617 27.0559L46.2167 26.6653L43.6184 25.3116ZM40.7565 16.2263C41.2834 16.8895 41.7286 17.7435 42.0739 18.7702H26.5744C27.1286 17.2802 27.8645 16.1173 28.7549 15.3178C30.2994 13.9368 32.0892 13.2736 34.2333 13.2736C35.5234 13.2736 36.7681 13.5462 37.9401 14.0913C39.1121 14.6364 40.0569 15.3541 40.7565 16.2263Z" fill="white"/>
<g id="Group_4">
<path id="Vector_6" d="M51.8769 0H51.0229V0.854015V33.9971V34.8511H51.8769H54.9568H55.8108V33.9971V0.854015V0H54.9568H51.8769Z" fill="white"/>
<path id="Vector_7" d="M63.9694 0H60.8894H60.0354V0.854015V33.9971V34.8511H60.8894H63.9694H64.8234V33.9971V0.854015V0H63.9694Z" fill="white"/>
</g>
<g id="Group_5">
<path id="Vector_8" d="M81.6766 8.61285C77.7427 8.61285 74.4356 10.0574 71.8645 12.9193C69.5296 15.4995 68.3394 18.5976 68.3394 22.1045C68.3394 25.6568 69.5932 28.8003 72.0553 31.4441C74.5356 34.1152 77.779 35.4598 81.6766 35.4598C85.5651 35.4598 88.7903 34.1061 91.2797 31.435C93.7509 28.7821 94.9956 25.6386 94.9956 22.0954C94.9956 18.5703 93.8145 15.4631 91.4705 12.8829C88.8903 10.0574 85.6014 8.61285 81.6766 8.61285ZM90.1622 22.1772C90.1622 23.7489 89.7716 25.2389 89.0175 26.5926C88.2634 27.9463 87.2277 29.0002 85.9466 29.727C84.6565 30.4629 83.2211 30.8354 81.6766 30.8354C80.1321 30.8354 78.6875 30.4629 77.4065 29.727C76.1255 28.9911 75.0898 27.9372 74.3357 26.5926C73.5725 25.2389 73.1909 23.7489 73.1909 22.1772C73.1909 19.706 74.0177 17.6527 75.7076 15.9174C77.3974 14.1821 79.3507 13.3372 81.6857 13.3372C84.0115 13.3372 85.9648 14.1821 87.6547 15.9174C89.3445 17.6527 90.1622 19.706 90.1622 22.1772Z" fill="white"/>
<path id="Vector_9" d="M133.635 9.23065H130.437H129.874L129.656 9.74851L122.96 25.3116L116.073 9.73943L115.846 9.23065H115.283H114.729H114.175L113.947 9.73943L107.115 25.2843L100.556 9.7576L100.338 9.23065H99.7653H96.6037H95.3045L95.8132 10.4208L106.034 34.3333L106.252 34.8511H106.816H107.388H107.942L108.169 34.3514L115.038 18.9791L121.897 34.3514L122.124 34.8511H122.678H123.251H123.814L124.032 34.3423L134.426 10.4299L134.944 9.23065H133.635Z" fill="white"/>
</g>
</g>
<g id="Group_6">
<path id="Vector_10" d="M95.8314 68.9299V41.9013V41.1108H95.041H94.2324H93.8236L93.5783 41.4379L71.3284 73.0728L70.4472 74.3266H71.9735H90.2712V82.8122V83.6026H91.0616H95.0228H95.8132V82.8122V74.3175H99.8471H100.638V73.5271V69.7294V68.939H99.8471H95.8314V68.9299ZM80.7862 68.9299L90.2803 55.4656V68.9299H80.7862Z" fill="white"/>
<path id="Vector_11" d="M132.763 42.1103H128.775H127.984V42.9007V66.9857C127.984 70.8015 127.775 72.3733 127.603 73.0183C127.257 74.3175 126.703 75.4259 125.967 76.3254C125.231 77.2248 124.305 77.9335 123.214 78.4422C122.115 78.951 120.952 79.2054 119.753 79.2054C118.354 79.2054 116.946 78.8693 115.565 78.2151C114.202 77.561 113.184 76.7615 112.539 75.8257C111.894 74.8808 111.467 73.6634 111.285 72.2279C111.213 71.7555 111.131 70.4745 111.131 66.9857V42.9007V42.1103H110.341H106.352H105.562V42.9007V66.9857C105.562 71.1559 105.816 73.9814 106.334 75.6349C107.161 78.3332 108.823 80.5228 111.258 82.1581C113.675 83.7753 116.609 84.6021 119.971 84.6021C123.105 84.6021 125.813 83.7208 128.039 81.9946C130.246 80.2775 131.745 78.2151 132.481 75.8711C133.199 73.6089 133.563 70.6198 133.563 66.9948V42.9007V42.1103H132.763Z" fill="white"/>
</g>
</g>
<defs>
<clipPath id="clip0_206_72">
<rect width="205" height="84.7565" fill="white"/>
</clipPath>
</defs>
</svg>
