<svg width="33" height="38" viewBox="0 0 33 38" fill="none" xmlns="http://www.w3.org/2000/svg">
<path d="M16.1049 38C7.22622 38 0 30.7776 0 21.9037V2.90144C0 1.29895 1.29965 0 2.90299 0C4.50634 0 5.80599 1.29895 5.80599 2.90144V21.9037C5.80599 27.5771 10.424 32.1971 16.1049 32.1971C21.7858 32.1971 26.4038 27.5816 26.4038 21.9037C26.4038 16.2972 21.893 11.7218 16.3059 11.6147L16.3014 11.9718C16.2746 13.5743 14.9482 14.8643 13.3538 14.8242C11.7504 14.7974 10.4731 13.4806 10.4999 11.8781L10.549 8.93199C10.5714 7.57054 11.5361 6.40996 12.8714 6.13767C13.9344 5.91895 15.0241 5.81182 16.1138 5.81182C24.9925 5.81182 32.2188 13.0342 32.2188 21.9081C32.2054 30.7776 24.9836 38 16.1049 38Z" fill="#00CEA6"/>
</svg>
