<svg width="156" height="284" viewBox="0 0 156 284" fill="none" xmlns="http://www.w3.org/2000/svg">
<path d="M89.1872 160.695C89.1872 160.695 77.0826 195.73 73.5376 199.99C69.9926 204.25 22.6029 242.92 17.864 246.996C14.2455 246.152 10.976 241.047 10.976 241.047C10.976 241.047 35.7545 210.438 41.7425 204.984C47.7305 199.53 54.7838 196.335 57.9798 194.261C61.1575 192.186 69.1109 155.351 69.1109 155.351L89.1872 160.695Z" fill="#E0A394"/>
<path d="M83.6584 188.036C86.7626 181.829 100.906 125.88 100.906 125.88C100.906 125.88 74.456 116.883 70.9477 121.584C67.4211 126.284 60.7902 135.722 61.9657 139.578C63.1413 143.453 59.3942 175.697 58.4758 180.287C56.639 187.632 30.9237 211.503 30.9237 211.503L47.455 228.028C47.455 228.028 73.1703 207.83 76.8439 202.322C80.5175 196.813 83.6584 188.036 83.6584 188.036Z" fill="#029F80"/>
<path d="M90.6567 150.026C90.6567 150.026 104.782 181.077 105.48 186.567C106.178 192.057 109.257 254.066 109 260.309C105.914 262.365 99.3264 260.309 99.3264 260.309C99.3264 260.309 98.6835 251.495 96.4242 241.782C93.8711 230.764 89.6648 218.499 89.7383 214.183C89.8668 206.086 89.9954 197.731 90.6567 193.985C91.3179 190.239 72.1233 158.785 72.1233 158.785L90.6567 150.026Z" fill="#E0A394"/>
<path d="M109.19 173.952C93.6507 139.964 73.2621 119.215 73.2621 119.215C73.2621 119.215 48.5938 132.325 49.6041 138.109C49.6041 138.109 86.0279 191.323 86.0279 194.995C86.0279 198.668 89.7015 228.047 89.7015 228.047H111.743C111.762 228.047 112.129 180.434 109.19 173.952Z" fill="#00AF8D"/>
<path d="M92.3465 77.4045C92.3465 77.4045 98.2794 97.8231 102.559 106.71C106.839 115.598 130.975 132.491 140.93 137.412C144.585 142.516 143.502 147.272 145.063 148.668C146.606 150.063 156.396 148.668 154.853 140.295C153.31 131.921 142.859 129.406 137.201 125.311C131.562 121.216 116.225 102.175 113.029 100.21C110.072 93.0122 104.984 62.164 100.282 57.041C96.1487 52.5606 92.3465 77.4045 92.3465 77.4045Z" fill="#E0A394"/>
<path d="M51.8633 51.5691C51.8633 51.5691 28.9767 51.3303 22.0703 58.7119C15.1823 66.0934 19.8477 111.888 20.1049 122.483C20.3437 133.078 45.2324 139.468 52.8552 132.582C60.4963 125.678 51.8633 51.5691 51.8633 51.5691Z" fill="#00B793"/>
<path d="M69.6068 49.6227C69.6068 49.6227 41.522 48.3741 35.3687 54.7641C29.2154 61.1724 36.6729 111.76 35.3687 121.253C34.0462 130.728 41.32 137.999 57.9247 134.051C74.5295 130.104 69.6068 49.6227 69.6068 49.6227Z" fill="#029F80"/>
<path d="M70.4334 34.4924C70.4334 34.4924 71.5906 52.0465 67.3109 56.1596C77.0092 63.3759 86.2851 54.8926 86.2851 54.8926C86.2851 54.8926 82.0972 46.7582 89.3525 36.9713C87.0565 33.8497 70.4334 34.4924 70.4334 34.4924Z" fill="#E0A394"/>
<path d="M62.9025 54.2132C62.9025 54.2132 67.3109 54.7641 69.4783 51.5507C72.4539 51.973 85.881 53.6807 85.881 53.6807C85.881 53.6807 88.6546 56.2698 91.3547 55.7924C89.2974 60.6399 87.1667 84.0516 80.4073 81.3156C73.6662 78.5797 62.9025 54.2132 62.9025 54.2132Z" fill="#E0A394"/>
<path d="M61.8739 14.5695C61.8739 14.5695 58.5126 25.8071 62.4984 29.6264C66.3557 26.6885 67.4762 15.506 67.4762 15.506L61.8739 14.5695Z" fill="#522D0F"/>
<path d="M64.3169 17.1035C64.3169 17.1035 59.8718 32.344 61.58 38.1097C63.2882 43.8753 66.8149 47.6396 69.515 48.4108C72.2151 49.2003 83.4931 47.4009 86.781 38.6422C91.5383 38.1097 93.0629 33.868 92.8057 31.481C92.5302 29.1123 88.4525 28.5981 87.1851 30.214C88.7464 22.8141 88.0117 16.2037 88.0117 16.2037L64.3169 17.1035Z" fill="#E0A394"/>
<path d="M65.6026 38.33L73.9785 38.7524C73.9785 38.7524 71.7927 41.8188 69.0191 41.8188C66.2639 41.8188 65.6026 38.33 65.6026 38.33Z" fill="white"/>
<path d="M85.2748 19.7476C85.2748 19.7476 84.3932 24.0994 85.5136 26.2845C86.1381 28.5431 85.3483 32.2522 85.3483 32.2522L87.2953 32.5827C87.2953 32.5827 90.9506 29.1123 91.7404 29.9019C92.5302 30.6914 94.4038 35.7226 87.7178 38.4953C86.7994 38.6606 85.9728 41.0293 86.1014 44.2059C88.1953 44.7017 97.4528 34.015 98.2059 26.9823C98.959 19.9496 100.208 10.7135 93.3935 10.3279C92.8057 5.60886 89.2974 1.89972 80.5726 1.07343C71.8478 0.24714 66.7965 5.9761 62.5535 8.89567C58.3289 11.8152 56.0145 18.0767 68.1925 19.105C80.4257 20.1516 85.2748 19.7476 85.2748 19.7476Z" fill="#522D0F"/>
<path d="M65.676 53.5338C65.676 53.5338 72.6559 60.9521 80.5358 60.9521C84.2094 60.9521 89.7198 60.9521 90.1791 55.0212C98.3896 57.4817 104.084 61.8886 104.084 61.8886C104.084 61.8886 108.859 76.0273 103.606 96.042C98.3528 116.075 102.577 149.09 102.577 149.09C102.577 149.09 62.1677 152.762 46.9774 142.278C49.604 125.201 50.7244 97.0335 49.7326 84.5657C48.7407 72.0795 46.9774 59.428 46.9774 59.428C46.9774 59.428 59.5962 53.2033 65.676 53.5338Z" fill="#FFC100"/>
<path d="M86.9463 54.4887C86.9463 54.4887 93.1914 55.7006 96.5344 60.5298C99.4733 64.7714 105.7 77.9737 101.824 108.491C106.049 100.467 107.941 76.67 106.692 69.6557C105.443 62.6598 101.292 51.9914 86.9463 54.4887Z" fill="#00B793"/>
<path d="M44.3875 62.1456C44.3875 62.1456 29.2889 98.0985 27.6358 107.83C26.001 117.562 35.9014 145.289 41.1914 155.058C41.2098 161.337 37.5913 164.587 38.0505 166.626C38.5097 168.645 47.2896 173.163 50.8714 165.451C54.4532 157.72 47.3815 149.622 45.1406 143.03C42.8997 136.438 41.3935 112.035 39.924 108.583C41.6874 101 53.9205 74.5951 56.5839 69.1048C57.888 66.4056 58.6778 60.3278 54.4532 58.1978C47.2896 54.5621 44.3875 62.1456 44.3875 62.1456Z" fill="#E0A394"/>
<path d="M59.284 23.3833L69.0191 24.9992C69.0191 24.9992 68.5966 30.3792 64.6107 30.7281C60.6432 31.0586 57.8697 29.0939 59.284 23.3833Z" fill="#191919"/>
<path d="M71.4804 25.4031L81.3257 26.2478C81.3257 26.2478 81.3257 31.6462 77.3765 32.2889C73.4274 32.9499 70.5069 31.1872 71.4804 25.4031Z" fill="#191919"/>
<path d="M71.8478 26.5232L68.3578 25.9173L68.7436 24.9441L71.609 25.4031L71.8478 26.5232Z" fill="#191919"/>
<path d="M89.7199 30.5629L81.0318 27.5515L81.3257 26.2478L90.5465 30.0487L89.7199 30.5629Z" fill="#191919"/>
<path d="M52.4143 56.5635C52.4143 56.5635 47.4733 55.4434 43.7997 60.9521C40.1261 66.4607 38.2893 73.8055 38.2893 73.8055L52.9838 81.1503C52.9838 81.1503 58.4942 68.2969 58.4942 64.6245C58.4942 60.9521 59.1922 57.6836 52.4143 56.5635Z" fill="#FFC100"/>
<path d="M44.6079 55.4435C44.6079 55.4435 57.9064 53.5705 61.378 67.7277C64.8679 81.8664 57.1166 102.377 46.9774 114.147C45.7835 122.006 47.2713 124.338 47.2713 124.338C47.2713 124.338 58.3472 114.863 65.8047 90.2763C73.2621 65.6711 64.2066 51.9914 56.0145 51.5691C47.8223 51.1467 44.6079 55.4435 44.6079 55.4435Z" fill="#00B793"/>
<path d="M4.58156 245.941C5.54288 245.226 9.49085 241.669 11.3447 239.979C12.2937 242.259 16.9165 244.544 19.1093 245.402C19.4277 246.876 20.4528 250.094 22.0057 251.179C23.9469 252.535 27.1572 254.452 28.1989 256.371C29.4622 258.697 30.4945 262.595 28.692 263.935C25.6879 266.169 18.216 262.395 15.3043 260.361C13.4627 259.075 3.73431 251.703 2.91778 249.978C2.10124 248.252 3.37991 246.835 4.58156 245.941Z" fill="#522D0F"/>
<path d="M96.6476 268.232C97.0357 267.043 98.2542 261.63 98.815 259.072C100.999 260.443 106.317 259.602 108.702 259.01C109.863 260.074 112.678 262.199 114.655 262.186C117.127 262.171 121.019 261.869 123.064 262.875C125.544 264.096 128.774 266.795 128.047 269.024C126.834 272.74 118.19 274.03 114.482 274.053C112.137 274.068 99.4007 273.653 97.6642 272.675C95.9277 271.697 96.1625 269.718 96.6476 268.232Z" fill="#522D0F"/>
</svg>
