<svg width="344" height="424" viewBox="0 0 344 424" fill="none" xmlns="http://www.w3.org/2000/svg">
<path d="M68 99C53.6 112.6 14 119 0 143V347C24 355.667 79.8113 383.249 108 397C149 417 274 445 318 397C362 349 316.474 241.362 330 161C347 60 238 -9.00004 181 0.999963C124 11 86 82 68 99Z" fill="url(#paint0_linear_554_0)"/>
<g filter="url(#filter0_d_554_0)">
<path d="M179.124 198.208C182.802 209.789 173.457 225.318 166.998 233.226C164.79 235.93 163.926 239.688 165.286 242.903C167.044 247.059 171.988 249.198 176.353 248.054C193.847 243.469 229.761 235.507 238.404 207.668C244.439 188.231 228.481 176.418 228.055 157.523C227.715 142.407 274.783 97.6588 271.599 82.3171C268.414 66.9754 202.668 21.9298 180.664 48.4077C158.661 74.8857 182.704 129.176 170.453 148.33C160.519 163.86 173.399 180.179 179.124 198.208Z" fill="url(#paint1_linear_554_0)"/>
</g>
<path d="M197.554 70.6312C194.009 70.0655 190.673 72.5005 190.103 76.0702C189.265 81.3216 194.874 87.4188 194.874 87.4188C194.874 87.4188 202.103 83.3703 202.941 78.1189C203.511 74.5492 201.098 71.1969 197.554 70.6312ZM195.977 80.513C194.067 80.2083 192.767 78.4143 193.072 76.5044C193.376 74.5946 195.17 73.2971 197.079 73.6018C198.989 73.9066 200.289 75.7006 199.985 77.6077C199.681 79.5148 197.886 80.8178 195.977 80.513ZM196.924 74.5774C195.561 74.3599 194.28 75.291 194.062 76.654C193.845 78.017 194.772 79.3008 196.135 79.5183C197.498 79.7358 198.78 78.8046 198.997 77.4416C199.215 76.0786 198.287 74.7949 196.924 74.5774Z" fill="#F9BC00"/>
<rect x="187.825" y="90.3445" width="57" height="13" rx="4" transform="rotate(9.0671 187.825 90.3445)" fill="#F9BC00"/>
<rect x="179.788" y="140.707" width="44" height="14" rx="4" transform="rotate(9.0671 179.788 140.707)" fill="#EDB300"/>
<rect x="185.219" y="189.169" width="44" height="14" rx="4" transform="rotate(9.0671 185.219 189.169)" fill="#EDB300"/>
<path d="M189.063 132.054C188.491 131.338 188.614 131.074 187.772 130.94C186.927 130.805 186.365 130.933 186.377 132.229C186.392 133.526 187.112 133.058 186.897 134.018C186.683 134.978 186.866 135.221 186.967 135.475C187.069 135.73 187.373 136.469 187.681 135.544C187.99 134.62 188.369 134.142 188.776 133.734C189.183 133.323 189.635 132.77 189.063 132.054ZM191.771 132.431C191.521 132.543 191.478 132.871 191.638 133.079C191.795 133.287 192.132 133.579 192.317 133.188C192.499 132.795 192.021 132.319 191.771 132.431ZM187.101 129.473C187.219 128.994 188.025 128.605 188.552 128.451C189.08 128.297 189.546 128.285 189.55 127.875C189.553 127.472 189.462 127.153 188.698 127.031C187.932 126.909 188.09 128.056 187.566 127.303C187.042 126.549 187.782 126.84 188.119 126.742C188.457 126.644 188.869 126.085 188.326 125.953C187.783 125.822 187.852 126.137 187.448 125.9C187.045 125.663 186.726 126.389 186.469 126.241C186.298 126.141 185.874 125.673 185.614 125.238C184.87 125.72 184.23 126.38 183.744 127.166C183.658 128.312 184.138 128.996 184.138 128.996C184.138 128.996 184.316 129.781 185.937 130.968C185.937 130.968 186.267 131.041 185.941 130.558C185.616 130.074 185.266 129.48 185.803 129.283C186.337 129.088 186.472 129.131 186.511 129.655C186.55 130.179 186.982 129.951 187.101 129.473ZM189.695 123.048C185.877 122.438 182.253 125.261 181.601 129.351C180.948 133.441 183.514 137.251 187.331 137.86C191.149 138.47 194.773 135.647 195.426 131.557C196.078 127.467 193.513 123.657 189.695 123.048ZM187.439 137.187C183.967 136.633 181.635 133.171 182.229 129.451C182.823 125.731 186.116 123.167 189.588 123.721C193.06 124.275 195.391 127.737 194.797 131.457C194.204 135.177 190.911 137.741 187.439 137.187ZM194.233 130.79C194.236 130.732 194.239 130.674 194.242 130.612C194.247 130.482 194.252 130.351 194.25 130.223C194.247 130.157 194.248 130.092 194.246 130.026C194.241 129.897 194.228 129.771 194.216 129.645C194.209 129.589 194.206 129.529 194.199 129.473C194.177 129.304 194.147 129.133 194.112 128.969C194.097 128.898 194.076 128.829 194.058 128.76C194.032 128.659 194.009 128.562 193.979 128.464C193.955 128.378 193.926 128.294 193.895 128.209C193.868 128.136 193.841 128.059 193.811 127.985C193.774 127.893 193.737 127.801 193.697 127.712C193.676 127.663 193.651 127.615 193.627 127.566C193.457 127.214 193.256 126.882 193.025 126.572C193.012 126.553 192.996 126.533 192.983 126.514C192.899 126.411 192.813 126.307 192.722 126.206C192.717 126.202 192.715 126.195 192.709 126.19C192.321 125.756 191.868 125.38 191.368 125.082C191.164 125.329 190.945 125.653 190.738 125.738C190.435 125.862 190.349 126.539 190.891 126.56C190.891 126.56 190.707 126.703 190.766 127.337C190.826 127.972 191.069 128.148 191.9 127.929C192.256 127.834 192.499 127.952 192.402 128.313C192.2 129.078 191.646 128.955 191.866 130.278C192 131.076 192.581 131.473 192.723 132.099C192.8 132.443 193.252 132.822 193.641 133.092C193.71 132.94 193.773 132.785 193.834 132.625C193.856 132.567 193.876 132.504 193.899 132.442C193.94 132.325 193.976 132.203 194.011 132.081C194.027 132.024 194.043 131.965 194.058 131.909C194.1 131.725 194.139 131.542 194.169 131.357C194.199 131.168 194.22 130.978 194.233 130.79Z" fill="#EDB300"/>
<g clip-path="url(#clip0_554_0)">
<path d="M190.015 178.967L190.482 179.042C190.733 179.082 190.969 178.911 191.009 178.66L191.084 178.193C191.124 177.942 190.953 177.706 190.702 177.666L190.234 177.591C189.984 177.551 189.748 177.722 189.708 177.973L189.633 178.441C189.593 178.692 189.764 178.927 190.015 178.967Z" fill="#EDB300"/>
<path d="M193.11 179.461L193.578 179.536C193.829 179.576 194.065 179.405 194.105 179.154L194.18 178.687C194.22 178.436 194.049 178.2 193.798 178.16L193.33 178.086C193.079 178.046 192.844 178.216 192.804 178.467L192.729 178.935C192.689 179.186 192.86 179.421 193.11 179.461Z" fill="#EDB300"/>
<path d="M196.206 179.956L196.674 180.03C196.925 180.07 197.161 179.899 197.201 179.648L197.275 179.181C197.315 178.93 197.144 178.694 196.894 178.654L196.426 178.58C196.175 178.54 195.939 178.71 195.899 178.961L195.825 179.429C195.785 179.68 195.956 179.916 196.206 179.956Z" fill="#EDB300"/>
<path d="M189.641 181.307L190.109 181.381C190.36 181.421 190.596 181.25 190.636 181L190.71 180.532C190.75 180.281 190.579 180.045 190.329 180.005L189.861 179.931C189.61 179.891 189.375 180.061 189.335 180.312L189.26 180.78C189.22 181.031 189.391 181.267 189.641 181.307Z" fill="#EDB300"/>
<path d="M192.737 181.801L193.205 181.875C193.456 181.915 193.692 181.744 193.732 181.494L193.806 181.026C193.846 180.775 193.675 180.539 193.425 180.499L192.957 180.425C192.706 180.385 192.47 180.555 192.43 180.806L192.356 181.274C192.316 181.525 192.486 181.761 192.737 181.801Z" fill="#EDB300"/>
<path d="M195.833 182.295L196.301 182.369C196.552 182.409 196.787 182.238 196.827 181.988L196.902 181.52C196.942 181.269 196.771 181.033 196.52 180.993L196.053 180.919C195.802 180.879 195.566 181.05 195.526 181.3L195.451 181.768C195.412 182.019 195.582 182.255 195.833 182.295Z" fill="#EDB300"/>
<path d="M189.268 183.646L189.736 183.72C189.987 183.76 190.222 183.589 190.262 183.339L190.337 182.871C190.377 182.62 190.206 182.384 189.955 182.344L189.488 182.27C189.237 182.23 189.001 182.4 188.961 182.651L188.887 183.119C188.847 183.37 189.017 183.606 189.268 183.646Z" fill="#EDB300"/>
<path d="M192.364 184.14L192.832 184.214C193.083 184.254 193.318 184.083 193.358 183.833L193.433 183.365C193.473 183.114 193.302 182.878 193.051 182.838L192.583 182.764C192.333 182.724 192.097 182.894 192.057 183.145L191.982 183.613C191.942 183.864 192.113 184.1 192.364 184.14Z" fill="#EDB300"/>
<path fill-rule="evenodd" clip-rule="evenodd" d="M199.047 174.709L189.416 173.172C188.532 173.031 187.698 173.635 187.557 174.519L186.152 183.325C186.011 184.209 186.615 185.042 187.499 185.183L197.13 186.72C198.014 186.862 198.848 186.257 198.989 185.373L200.394 176.568C200.536 175.684 199.931 174.85 199.047 174.709ZM198.535 185.301C198.434 185.934 197.837 186.368 197.203 186.266L187.571 184.729C186.938 184.628 186.505 184.031 186.606 183.397L187.81 175.85L199.739 177.754L198.535 185.301ZM187.883 175.396L199.812 177.3L199.812 177.3L199.94 176.495C200.042 175.861 199.609 175.264 198.975 175.163L189.343 173.625C188.71 173.524 188.112 173.958 188.011 174.591L187.883 175.396Z" fill="#EDB300"/>
</g>
<path d="M134.854 235.854C134.854 235.854 126.319 228.501 124.131 224.476C121.942 220.451 126.218 209.004 126.218 209.004L116.656 207C116.656 207 111.219 217.122 107.885 227.991C112.077 245.382 137.716 248.626 134.854 235.854Z" fill="#FAC1AD"/>
<path d="M133.541 186.213C133.541 186.213 134.871 189.066 135.124 191.495C135.376 193.923 139.534 196.114 140.948 196.776C142.11 198.033 140.898 199.68 138.827 200.428C137.699 202.024 138.406 202.941 138.659 203.417C138.086 204.045 137.48 204.334 137.48 204.334L138.171 205.591C138.171 205.591 137.413 206.1 137.48 207.527C137.548 208.953 138.592 213.352 133.558 212.893C128.524 212.435 127.077 212.299 124.989 214.15C122.918 216.001 121.656 221.198 121.656 221.198L112.01 217.513C112.01 217.513 114.922 209.548 114.417 206.847C113.929 204.164 111.589 203.077 110.427 200.547C109.266 198.033 110.932 196.097 112.582 196.267C113.828 193.668 113.744 188.794 115.326 187.792C116.909 186.79 133.541 186.213 133.541 186.213Z" fill="#FAC1AD"/>
<path d="M108.585 412.997L106.085 354.997H127.585L119.585 412.997H108.585Z" fill="#FAC1AD"/>
<path d="M148.585 255.997L137.585 260.997L135.085 253.997L146.585 249.997L148.585 255.997Z" fill="#FAC1AD"/>
<path d="M129.537 412.997L127.037 354.997H148.537L140.537 412.997H129.537Z" fill="#FAC1AD"/>
<path d="M120.085 412.497C116.485 413.697 110.585 412.997 108.085 412.497C104.585 414.997 104.585 422.997 106.085 422.997C107.585 422.997 131.585 425.497 131.585 421.497C131.585 413.997 123.585 415.497 120.085 412.497Z" fill="#FFC100"/>
<path d="M141.037 412.497C137.437 413.697 131.537 412.997 129.037 412.497C125.537 414.997 125.537 422.997 127.037 422.997C128.537 422.997 152.537 425.497 152.537 421.497C152.537 413.997 144.537 415.497 141.037 412.497Z" fill="#FFC100"/>
<path d="M78.46 354.49C81.8674 344.885 105.5 284.5 105.5 284.5C105.5 284.5 133.363 276.118 136.5 284.5C145 296.362 167.585 363.497 164.085 368.497C160.897 369.539 131.729 370.99 113.613 370.362C95.5135 369.733 75.0527 364.096 78.46 354.49Z" fill="#FFC100"/>
<path d="M105.932 227.346C105.932 227.346 100.512 243.768 103.508 261.244C106.488 278.736 105.5 285 105.5 285C105.5 285 118.482 288.285 137 285.5C137 279.731 136.585 276.997 138.154 267.663C142.144 255.198 148.709 247.963 134.77 235.515C127.986 234.19 124.602 235.43 122.212 232.305C118.407 227.278 112.33 224.425 105.932 227.346Z" fill="white"/>
<path d="M119.443 235.41C117.815 233.633 114.827 229.036 110.231 232.68C105.631 236.307 108.143 245.409 109.455 249.89C110.784 254.369 117.25 275.793 119.061 281.723C124.094 292.507 150.137 263.313 150.137 263.313C152.694 262.886 148.818 255.423 148.818 255.423C148.818 255.423 139.204 261.592 126.19 270.865C124.342 261.446 122.981 258.718 122.825 250.738C122.668 242.757 120.528 236.589 119.443 235.41Z" fill="#FAC1AD"/>
<path d="M121.033 205.081C120.276 201.718 120.814 199.358 122.127 197.541C123.424 195.723 124.164 194.45 124.164 193.923C124.164 193.923 134.45 190.883 136.841 191.019C138.036 186.349 134.484 179.522 129.417 177.11C124.333 174.698 112.835 172.728 105.932 180.133C105.932 180.133 96.0338 183.733 96.0338 200.716C96.0338 211.772 77.381 229.74 80.8826 234.682C89.2999 246.571 111.185 241.476 119.602 238.079C125.158 235.837 119.383 234.122 121.286 224.493C122.969 216.001 117.431 207.102 114.905 202.279C113.272 199.171 112.077 196.488 113.272 195.52C114.468 194.535 118.424 194.772 118.727 197.999C119.03 201.243 118.727 204.775 119.838 206.355C119.838 206.372 121.555 207.391 121.033 205.081Z" fill="#522D0F"/>
<path d="M109.653 182.12C122.296 180.524 135.208 180.286 147.076 182.748C155.106 184.413 162.581 187.3 168.961 191.206C159.214 188.811 151.908 193.821 143.541 197.116C135.174 200.411 127.127 204.368 118.424 206.932C109.737 209.497 100.023 210.55 92.0944 207.849C85.0912 205.472 80.3775 200.496 75.95 195.723L74.4012 193.261C73.2228 191.376 74.7548 188.947 77.4988 188.302C88.1551 185.822 98.8451 183.479 109.653 182.12Z" fill="#FFC100"/>
<path d="M139.585 187.249C141.268 186.366 136.555 173.629 136.066 172.559C133.154 166.19 125.713 161.639 116.252 163.371C100.242 166.326 100.091 179.759 99.1481 189.44C99.1481 189.44 115.595 199.918 139.585 187.249Z" fill="#FFC100"/>
<path d="M99.5521 185.177C103.104 186.824 118.727 192.785 138.962 181.101C139.82 184.124 140.325 186.858 139.585 187.266C115.595 199.952 99.1481 189.457 99.1481 189.457C99.2827 188.081 99.4006 186.638 99.5521 185.177Z" fill="#D99800"/>
<path d="M151.423 262.062C151.423 262.062 164.015 256.105 165.002 249.116C165.67 244.37 158.871 250.028 158.871 250.028C158.871 250.028 159.393 249.15 159.299 248.518C159.205 247.885 157.586 249.01 156.203 250.101C154.82 251.192 152.795 252.123 148.097 256.668C146.669 258.037 151.423 262.062 151.423 262.062Z" fill="#FAC1AD"/>
<path d="M144.493 251.432C144.493 251.432 154.379 242.351 160.976 244.005C165.455 245.131 157.938 249.148 157.938 249.148C157.938 249.148 158.91 249.001 159.441 249.314C159.972 249.628 158.38 250.664 156.904 251.503C155.429 252.342 153.863 253.812 148.102 256.358C146.361 257.135 144.493 251.432 144.493 251.432Z" fill="#FAC1AD"/>
<path d="M162.52 46H99.2824C96.2526 42.7567 91.8379 34.4127 98.4167 26.9827C105.52 18.9607 116.451 25.6559 121.356 29.6363C121.212 23.8869 123.953 12.1227 136.072 11.0612C148.191 9.9998 153.529 23.0023 154.683 29.6363C157.857 25.9507 165.204 21.2605 170.744 25.1524C176.284 29.0443 175.505 40.1894 162.52 46Z" fill="#5FFFE0"/>
<path fill-rule="evenodd" clip-rule="evenodd" d="M295 203C288.373 203 283 208.373 283 215V235.274C283 241.902 288.373 247.274 295 247.274H298.721L293.331 257.605L310.399 247.274H332C338.627 247.274 344 241.902 344 235.274V215C344 208.373 338.627 203 332 203H295Z" fill="#FFC100"/>
<rect x="293" y="214.161" width="31" height="4" rx="2" fill="#F3B700"/>
<rect x="293" y="229.161" width="43" height="3" rx="1.5" fill="#F3B700"/>
<path fill-rule="evenodd" clip-rule="evenodd" d="M74 67C67.3726 67 62 72.3726 62 79V99.2742C62 105.902 67.3726 111.274 74 111.274H77.7206L72.3307 121.605L89.3987 111.274H111C117.627 111.274 123 105.902 123 99.2742V79C123 72.3726 117.627 67 111 67H74Z" fill="#FFC100"/>
<rect x="72" y="78.1613" width="31" height="4" rx="2" fill="#EBB200"/>
<rect x="72" y="93.1613" width="43" height="3" rx="1.5" fill="#EBB200"/>
<defs>
<filter id="filter0_d_554_0" x="144.634" y="24.2395" width="147.119" height="248.12" filterUnits="userSpaceOnUse" color-interpolation-filters="sRGB">
<feFlood flood-opacity="0" result="BackgroundImageFix"/>
<feColorMatrix in="SourceAlpha" type="matrix" values="0 0 0 0 0 0 0 0 0 0 0 0 0 0 0 0 0 0 127 0" result="hardAlpha"/>
<feOffset dy="4"/>
<feGaussianBlur stdDeviation="10"/>
<feColorMatrix type="matrix" values="0 0 0 0 0.128906 0 0 0 0 0 0 0 0 0 0.4125 0 0 0 0.16 0"/>
<feBlend mode="normal" in2="BackgroundImageFix" result="effect1_dropShadow_554_0"/>
<feBlend mode="normal" in="SourceGraphic" in2="effect1_dropShadow_554_0" result="shape"/>
</filter>
<linearGradient id="paint0_linear_554_0" x1="168.837" y1="0.0383301" x2="168.837" y2="434.735" gradientUnits="userSpaceOnUse">
<stop stop-color="#04EBBE"/>
<stop offset="1" stop-color="#01D2A9"/>
</linearGradient>
<linearGradient id="paint1_linear_554_0" x1="227.126" y1="43.9584" x2="193.528" y2="254.494" gradientUnits="userSpaceOnUse">
<stop stop-color="#FFD657"/>
<stop offset="1" stop-color="#FFC100"/>
</linearGradient>
<clipPath id="clip0_554_0">
<rect width="13" height="13" fill="white" transform="translate(187.898 172.381) rotate(9.0671)"/>
</clipPath>
</defs>
</svg>
