<svg width="126" height="279" viewBox="0 0 126 279" fill="none" xmlns="http://www.w3.org/2000/svg">
<path d="M85.88 162.188C83.2875 154.342 75.0553 129.139 74.1126 124.01C73.0015 117.913 68.8434 97.007 68.069 92.4046C67.2778 87.8022 65.8637 78.4615 70.8635 75.4046C75.8634 72.3476 78.2708 77.2387 79.6849 79.2088C80.6276 80.5165 82.0249 86.9021 81.2336 94.8331C80.4592 102.764 82.4457 111.188 83.1865 120.766C87.2941 129.156 90.9472 153.442 91.9236 160.422L85.88 162.188Z" fill="#FAC1AD"/>
<path d="M74.7692 72.8571C74.7692 72.8571 66.234 65.5035 64.0455 61.4785C61.857 57.4535 66.133 46.007 66.133 46.007L56.571 44.003C56.571 44.003 51.1334 54.1249 47.8002 64.994C51.992 82.3846 77.631 85.6284 74.7692 72.8571Z" fill="#FAC1AD"/>
<path d="M73.4561 23.2158C73.4561 23.2158 74.786 26.0689 75.0385 28.4975C75.291 30.926 79.4492 33.1169 80.8633 33.7792C82.0249 35.0359 80.8128 36.6833 78.7421 37.4305C77.6142 39.0269 78.3213 39.944 78.5738 40.4195C78.0014 41.0479 77.3954 41.3366 77.3954 41.3366L78.0856 42.5934C78.0856 42.5934 77.328 43.1029 77.3954 44.5294C77.4627 45.956 78.5064 50.3546 73.4729 49.8961C68.4394 49.4375 66.9916 49.3017 64.9041 51.1528C62.8334 53.004 61.5708 58.2008 61.5708 58.2008L51.9246 54.5154C51.9246 54.5154 54.837 46.5504 54.332 43.8501C53.8438 41.1668 51.5038 40.0799 50.3422 37.5494C49.1806 35.0359 50.8472 33.0999 52.497 33.2697C53.7428 30.6713 53.6586 25.7972 55.241 24.7952C56.8235 23.7932 73.4561 23.2158 73.4561 23.2158Z" fill="#FAC1AD"/>
<path d="M89.8866 154.545C89.8866 154.545 102.832 183.264 103.472 188.359C104.112 193.437 107.236 250.726 107 256.5C104.172 258.402 98 256.5 98 256.5C98 256.5 97.2433 248.411 95.1727 239.427C92.8327 229.237 88.9775 217.875 89.0449 213.901C89.1627 206.412 89.2806 198.667 89.8866 195.22C90.4927 191.755 72.9005 162.663 72.9005 162.663L89.8866 154.545Z" fill="#FAC1AD"/>
<path d="M67.3075 156.226C67.3075 156.226 67.582 190.479 65.8318 195.279C64.0816 200.079 34.9736 248.247 32.1263 253.259C28.7342 253.624 24.3478 250.173 24.3478 250.173C24.3478 250.173 36.3791 215.912 39.8892 209.328C43.3992 202.745 48.5258 197.816 50.6271 195.022C52.7496 192.239 48.314 157.681 48.314 157.681L67.3075 156.226Z" fill="#FAC1AD"/>
<path d="M45.5 117.5C45.5 117.5 21.9927 183.62 18.5921 193.487C15.1916 203.355 35.6119 209.146 53.6754 209.791C71.7558 210.436 109.819 210.861 113 209.791C116.182 208.721 111.368 177.608 106.873 171.393C102.378 165.177 78.1312 126.11 75 117.5C71.8688 108.89 45.5 117.5 45.5 117.5Z" fill="#FFC100"/>
<path d="M45.8473 64.3486C45.8473 64.3486 43 79.5 43 99C43 105.5 44.5 119.5 44.5 119.5C44.5 119.5 59.5507 126.785 78.0687 124C74.685 114.5 76.2016 110.5 78.0687 104.666C82.0585 92.2008 88.624 84.966 74.685 72.5174C67.9007 71.1928 64.5169 72.4325 62.1264 69.3077C58.3218 64.2807 52.2445 61.4275 45.8473 64.3486Z" fill="white"/>
<path d="M58.8268 73.4176C57.5137 71.3966 55.3252 66.3697 50.1907 69.2058C45.0561 72.025 46.0325 81.4166 46.5881 86.053C47.1604 90.6893 50.0055 112.886 50.8135 119.034C51.6216 125.182 77.4627 155.055 77.4627 155.055C80.0552 155.055 83.0854 153.102 83.0854 153.102C83.0854 153.102 64.6852 125.165 60.3419 115.094C60.0726 105.499 58.4733 96.99 59.6349 89.0929C60.7964 81.1958 59.7022 74.7593 58.8268 73.4176Z" fill="#FAC1AD"/>
<path d="M60.948 42.0839C60.1904 38.7212 60.7291 36.3606 62.0422 34.5434C63.3385 32.7262 64.0792 31.4525 64.0792 30.926C64.0792 30.926 74.3651 27.8861 76.7556 28.0219C77.9509 23.3516 74.3988 16.5244 69.3316 14.1128C64.2475 11.7013 52.7495 9.73122 45.8473 17.1358C45.8473 17.1358 35.9486 20.7362 35.9486 37.7192C35.9486 48.7752 17.2959 66.7432 20.7975 71.6853C29.2148 83.5734 51.0997 78.4785 59.517 75.0819C65.0724 72.8401 59.2982 71.1248 61.2005 61.4955C62.8839 53.004 57.3454 44.1049 54.8202 39.2817C53.1872 36.1738 51.992 33.4905 53.1872 32.5224C54.3825 31.5374 58.3386 31.7752 58.6416 35.002C58.9446 38.2457 58.6416 41.7782 59.7527 43.3576C59.7527 43.3746 61.4698 44.3936 60.948 42.0839Z" fill="#522D0F"/>
<path d="M49.5678 19.1229C62.2106 17.5265 75.1227 17.2887 86.9911 19.7513C95.0212 21.4156 102.496 24.3027 108.876 28.2088C99.1288 25.8142 91.8226 30.8242 83.4558 34.1189C75.089 37.4136 67.0421 41.3706 58.3386 43.9351C49.652 46.4995 39.9384 47.5525 32.0093 44.8522C25.0061 42.4745 20.2924 37.4985 15.8649 32.7263L14.3162 30.2638C13.1377 28.3786 14.6697 25.9501 17.4137 25.3047C28.07 22.8252 38.76 20.4815 49.5678 19.1229Z" fill="#FFC100"/>
<path d="M79.4997 24.2517C81.1831 23.3686 76.4695 10.6314 75.9812 9.56143C73.0689 3.1928 65.628 -1.35865 56.1669 0.373617C40.1573 3.32866 40.0057 16.7622 39.063 26.4425C39.063 26.4425 55.5104 36.9211 79.4997 24.2517Z" fill="#FFC100"/>
<path d="M39.467 22.1798C43.0191 23.8272 58.6416 29.7882 78.8768 18.1039C79.7353 21.1269 80.2404 23.8611 79.4997 24.2687C55.5104 36.955 39.063 26.4595 39.063 26.4595C39.1977 25.0839 39.3155 23.6403 39.467 22.1798Z" fill="#D99800"/>
<path d="M75.0722 152.219C75.0722 152.219 79.1125 165.55 85.88 167.554C90.4758 168.913 85.88 161.356 85.88 161.356C85.88 161.356 86.6712 162.001 87.3109 162.001C87.9506 162.001 87.0752 160.235 86.1998 158.706C85.3244 157.178 84.7016 155.038 80.8969 149.722C79.7522 148.109 75.0722 152.219 75.0722 152.219Z" fill="#FAC1AD"/>
<path d="M20 254C20.8 253.2 24 249.333 25.5 247.5C26.7 249.5 31.3333 251 33.5 251.5C34 252.833 35.4 255.7 37 256.5C39 257.5 42.2631 258.851 43.5 260.5C45 262.5 46.5 266 45 267.5C42.5 270 35 267.5 32 266C30.1026 265.051 20 259.5 19 258C18 256.5 19 255 20 254Z" fill="#FFC100"/>
<path d="M96.2042 264.397C96.5552 263.321 97.6575 258.425 98.1648 256.111C100.14 257.351 104.951 256.59 107.109 256.055C108.158 257.017 110.705 258.939 112.494 258.928C114.73 258.914 118.251 258.641 120.1 259.551C122.343 260.655 125.265 263.097 124.607 265.114C123.51 268.475 115.691 269.642 112.337 269.663C110.216 269.676 98.6946 269.301 97.1238 268.416C95.553 267.532 95.7654 265.741 96.2042 264.397Z" fill="#FFC100"/>
</svg>
